<svg width="0" height="0" class="hidden">
  <symbol version="1.2" baseProfile="tiny-ps" xmlns="http://www.w3.org/2000/svg" viewBox="0 0 885 272" id="car">
    <title>285807_auto_vehicle_car_automobile_convertible_icon-svg</title>
    <g id="Shape_1">
      <g id="Layer">
        <path id="Layer" d="M271.11 201.53C271.11 240.09 239.86 271.35 201.3 271.35C162.74 271.35 131.48 240.09 131.48 201.53C131.48 162.97 162.74 131.72 201.3 131.72C239.86 131.72 271.11 162.98 271.11 201.53ZM251.17 201.53C251.17 173.99 228.84 151.67 201.3 151.67C173.76 151.67 151.43 173.99 151.43 201.53C151.43 229.07 173.76 251.4 201.3 251.4C228.84 251.4 251.17 229.07 251.17 201.53ZM210.41 220.81L225.94 236.33C220.83 239.95 214.9 242.48 208.48 243.56L208.48 221.61C209.14 221.37 209.78 221.1 210.41 220.81ZM878.71 189.24C875.66 194.04 877.08 203.13 876.47 204.45C876.18 204.23 875.86 204.02 875.54 203.8C876.04 204.63 876.32 204.77 876.47 204.45C885.56 210.91 882.39 215.5 868.57 219.63C852.32 220.27 819.81 221.53 819.81 221.53L806.52 221.53L806.52 197.47C806.52 158.3 774.76 126.55 735.59 126.55C696.42 126.55 663.6 158.3 663.6 197.47L663.06 221.53L275.84 221.53C275.85 220.9 275.86 220.27 275.86 219.63L275.86 200C275.86 159.44 242.98 126.55 202.41 126.55C161.84 126.55 128.95 159.44 128.95 200L128.95 219.63C128.95 220.27 128.96 220.9 128.98 221.53L87.79 221.53C87.79 221.53 79.35 218.58 75.13 217.73C44.05 217.03 28.52 223.43 20.67 207.6C19.82 204.44 18.98 201.27 18.13 198.1C14.45 198.13 12.15 197.47 9.27 196.84C7.91 193.04 4.77 192.29 4.2 187.34C16.29 179.37 4 170.33 1.67 163.27C1.25 153.78 0.83 144.28 0.4 134.78C2.95 133.43 14.6 129.73 15.6 127.81C19.82 120.88 20.66 103.8 20.67 91.08C15.17 89.98 19.41 91.55 15.6 87.92C15.26 78.57 16.58 67.99 23.2 65.76C25.38 64.58 29.56 66.59 33.33 65.76C43.92 63.41 55.36 65.06 66.26 62.59C75.38 60.52 85.48 61.64 95.39 59.42C113.31 55.41 130.26 56.26 148.58 56.26C167.74 56.26 191.28 54.27 206.84 58.16C206.76 51.78 208.08 45.94 209.37 41.06C214.38 18.43 237.93 26.54 235.34 25.86C236.56 35.41 237.07 30.45 237.87 63.22C238.91 63.85 366.23 70.77 365.15 69.55C365.04 51.62 369.27 12.56 371.48 18.89C375.91 15.99 384.28 20.57 385.41 23.33C395.29 47.37 382.29 53.74 385.41 69.55C386.88 70.53 393.01 70.19 393.01 70.19L522.83 76.52C522.83 76.52 529.93 51.42 536.76 53.09C535.49 65.61 520.93 78.99 543.09 76.52C533.8 73.48 539.33 58.45 542.46 53.72C534.49 44.5 538.18 46.91 527.26 39.16C506.28 24.28 474.79 13.94 474.07 12.56C476.12 6.84 484.26 -1.35 496.23 -2C498.23 -0.52 500.77 -0.7 503.2 0.53C621.27 60.68 633.25 69.92 631 70.75C630.83 70.77 630.65 70.8 630.48 70.82C630.69 70.82 630.87 70.8 631 70.75C645.52 68.85 680.66 71.06 685.2 71.48C684.67 71.46 684.15 71.45 683.67 71.45C685.77 71.57 686.13 71.56 685.2 71.48C713.62 72.14 807.76 90.74 841.98 105.65C854.53 111.12 867.23 116.38 874.27 127.18C877.96 132.83 880.02 141.82 881.87 148.71C882.08 151.03 882.3 153.35 882.51 155.68C883.35 156.1 884.2 156.52 885.04 156.94C885.04 167.71 885.04 178.47 885.04 189.24C882.93 189.24 880.82 189.24 878.71 189.24ZM221.37 208.72L243.33 208.72C242.24 215.14 239.72 221.07 236.1 226.17L220.57 210.65C220.87 210.02 221.14 209.38 221.37 208.72ZM236.1 176.89C239.72 182 242.24 187.93 243.33 194.35L221.37 194.35C221.13 193.69 220.87 193.05 220.57 192.42L236.1 176.89ZM181.22 194.35L159.27 194.35C160.35 187.93 162.88 182 166.5 176.89L182.03 192.42C181.73 193.05 181.46 193.69 181.22 194.35ZM215.76 198.82C217.26 198.82 218.47 200.03 218.47 201.53C218.47 203.03 217.26 204.24 215.76 204.24C214.27 204.24 213.05 203.03 213.05 201.53C213.05 200.04 214.27 198.82 215.76 198.82ZM198.59 187.07C198.59 185.57 199.8 184.36 201.3 184.36C202.79 184.36 204.01 185.57 204.01 187.07C204.01 188.56 202.8 189.78 201.3 189.78C199.8 189.78 198.59 188.56 198.59 187.07ZM210.41 182.26C209.78 181.96 209.14 181.69 208.48 181.46L208.48 159.5C214.9 160.59 220.83 163.12 225.94 166.74L210.41 182.26ZM207.69 201.53C207.69 205.07 204.83 207.93 201.3 207.93C197.77 207.93 194.9 205.07 194.9 201.53C194.9 198 197.77 195.14 201.3 195.14C204.83 195.14 207.69 198 207.69 201.53ZM176.66 166.73C181.76 163.12 187.69 160.59 194.11 159.5L194.11 181.46C193.46 181.7 192.81 181.96 192.19 182.26L176.66 166.73ZM192.19 220.8C192.81 221.1 193.46 221.37 194.11 221.61L194.11 243.56C187.69 242.48 181.76 239.95 176.66 236.33L192.19 220.8ZM186.83 204.24C185.34 204.24 184.12 203.03 184.12 201.53C184.12 200.03 185.34 198.82 186.83 198.82C188.33 198.82 189.54 200.03 189.54 201.53C189.54 203.03 188.33 204.24 186.83 204.24ZM182.02 210.65L166.5 226.17C162.88 221.07 160.35 215.14 159.26 208.72L181.22 208.72C181.46 209.38 181.73 210.02 182.02 210.65ZM204.01 216C204.01 217.5 202.8 218.71 201.3 218.71C199.8 218.71 198.59 217.5 198.59 216C198.59 214.5 199.8 213.29 201.3 213.29C202.8 213.29 204.01 214.5 204.01 216ZM805.19 201.53C805.19 240.09 773.93 271.35 735.38 271.35C696.82 271.35 665.56 240.09 665.56 201.53C665.56 162.97 696.82 131.72 735.38 131.72C773.93 131.72 805.19 162.98 805.19 201.53ZM785.24 201.53C785.24 173.99 762.92 151.67 735.38 151.67C707.83 151.67 685.51 173.99 685.51 201.53C685.51 229.07 707.83 251.4 735.38 251.4C762.92 251.4 785.24 229.07 785.24 201.53ZM710.74 166.73C715.84 163.12 721.77 160.59 728.19 159.5L728.19 181.46C727.53 181.7 726.89 181.96 726.26 182.26L710.74 166.73ZM738.09 216C738.09 217.5 736.87 218.71 735.38 218.71C733.88 218.71 732.66 217.5 732.66 216C732.66 214.5 733.88 213.29 735.38 213.29C736.87 213.29 738.09 214.5 738.09 216ZM744.49 220.81L760.01 236.33C754.91 239.95 748.98 242.48 742.56 243.56L742.56 221.61C743.22 221.37 743.86 221.1 744.49 220.81ZM741.77 201.53C741.77 205.07 738.91 207.93 735.38 207.93C731.84 207.93 728.98 205.07 728.98 201.53C728.98 198 731.84 195.14 735.38 195.14C738.91 195.14 741.77 198 741.77 201.53ZM770.18 176.89C773.79 182 776.32 187.93 777.41 194.35L755.45 194.35C755.21 193.69 754.95 193.05 754.65 192.42L770.18 176.89ZM755.45 208.72L777.41 208.72C776.32 215.14 773.79 221.07 770.17 226.17L754.65 210.65C754.95 210.02 755.21 209.38 755.45 208.72ZM749.84 198.82C751.34 198.82 752.55 200.03 752.55 201.53C752.55 203.03 751.34 204.24 749.84 204.24C748.34 204.24 747.13 203.03 747.13 201.53C747.13 200.04 748.34 198.82 749.84 198.82ZM732.66 187.07C732.66 185.57 733.88 184.36 735.38 184.36C736.87 184.36 738.09 185.57 738.09 187.07C738.09 188.56 736.87 189.78 735.38 189.78C733.88 189.78 732.66 188.56 732.66 187.07ZM715.3 194.35L693.34 194.35C694.43 187.93 696.96 182 700.58 176.89L716.1 192.42C715.81 193.05 715.54 193.69 715.3 194.35ZM744.49 182.26C743.86 181.96 743.22 181.69 742.56 181.46L742.56 159.5C748.98 160.59 754.91 163.12 760.01 166.74L744.49 182.26ZM716.1 210.65L700.58 226.17C696.96 221.07 694.43 215.14 693.34 208.72L715.3 208.72C715.54 209.38 715.8 210.02 716.1 210.65ZM720.91 204.24C719.41 204.24 718.2 203.03 718.2 201.53C718.2 200.03 719.41 198.82 720.91 198.82C722.41 198.82 723.62 200.03 723.62 201.53C723.62 203.03 722.41 204.24 720.91 204.24ZM726.26 220.8C726.89 221.1 727.53 221.37 728.19 221.61L728.19 243.56C721.77 242.48 715.84 239.95 710.74 236.33L726.26 220.8Z"></path>
      </g>
    </g>
  </symbol>
</svg>
